SOLID TRI
   FACET NORMAL 0.0 0.0 -1.0
     OUTER LOOP
       VERTEX -1.5 -1.5 1.4
       VERTEX 0.0 1.7 1.4
       VERTEX 1.5 -1.5 1.4
     ENDLOOP
   ENDFACET
   FACET NORMAL 0.0 0.88148 0.472221
     OUTER LOOP
       VERTEX -1.5 -1.5 1.4
       VERTEX 1.5 -1.5 1.4
       VERTEX 0.0 0.0 -1.4
     ENDLOOP
   ENDFACET
   FACET NORMAL -0.876814 -0.411007 0.24954
     OUTER LOOP
       VERTEX 1.5 -1.5 1.4
       VERTEX 0.0 1.7 1.4
       VERTEX 0.0 0.0 -1.4
     ENDLOOP
   ENDFACET
   FACET NORMAL 0.876814 -0.411007 0.24954
     OUTER LOOP
       VERTEX 0.0 1.7 1.4
       VERTEX -1.5 -1.5 1.4
       VERTEX 0.0 0.0 -1.4
     ENDLOOP
   ENDFACET
ENDSOLID TRI

